<mxfile host="app.diagrams.net" agent="Mozilla/5.0 (Macintosh; Intel Mac OS X 10_15_7) AppleWebKit/537.36 (KHTML, like Gecko) Chrome/129.0.0.0 Safari/537.36" version="24.7.17">
  <diagram name="Страница — 1" id="6PQMN0F-0teu6Dz-2hyq">
    <mxGraphModel dx="1327" dy="1725" grid="1" gridSize="10" guides="1" tooltips="1" connect="1" arrows="1" fold="1" page="1" pageScale="1" pageWidth="827" pageHeight="1169" math="0" shadow="0">
      <root>
        <mxCell id="0" />
        <mxCell id="1" parent="0" />
        <mxCell id="4QzucliX8BOiVu0A6L-6-8" style="edgeStyle=orthogonalEdgeStyle;rounded=0;orthogonalLoop=1;jettySize=auto;html=1;" parent="1" source="4QzucliX8BOiVu0A6L-6-1" target="4QzucliX8BOiVu0A6L-6-2" edge="1">
          <mxGeometry relative="1" as="geometry" />
        </mxCell>
        <mxCell id="4QzucliX8BOiVu0A6L-6-17" style="edgeStyle=orthogonalEdgeStyle;rounded=0;orthogonalLoop=1;jettySize=auto;html=1;" parent="1" source="4QzucliX8BOiVu0A6L-6-1" target="4QzucliX8BOiVu0A6L-6-14" edge="1">
          <mxGeometry relative="1" as="geometry" />
        </mxCell>
        <mxCell id="4QzucliX8BOiVu0A6L-6-31" style="edgeStyle=orthogonalEdgeStyle;rounded=0;orthogonalLoop=1;jettySize=auto;html=1;entryX=1;entryY=0.5;entryDx=0;entryDy=0;" parent="1" source="4QzucliX8BOiVu0A6L-6-1" target="4QzucliX8BOiVu0A6L-6-30" edge="1">
          <mxGeometry relative="1" as="geometry" />
        </mxCell>
        <mxCell id="4QzucliX8BOiVu0A6L-6-39" style="edgeStyle=orthogonalEdgeStyle;rounded=0;orthogonalLoop=1;jettySize=auto;html=1;" parent="1" source="4QzucliX8BOiVu0A6L-6-1" target="4QzucliX8BOiVu0A6L-6-38" edge="1">
          <mxGeometry relative="1" as="geometry" />
        </mxCell>
        <mxCell id="4QzucliX8BOiVu0A6L-6-1" value="&lt;pre style=&quot;-webkit-tap-highlight-color: transparent; user-select: text; margin-top: 0px; margin-bottom: 0px; text-wrap: wrap; overflow-wrap: break-word; background-color: rgb(255, 255, 255); font-size: 14px;&quot; class=&quot;ndfHFb-c4YZDc-fmcmS-DARUcf&quot;&gt;&lt;font face=&quot;Helvetica&quot;&gt;Облік доходів та витрат людини&lt;/font&gt;&lt;/pre&gt;" style="rounded=0;whiteSpace=wrap;html=1;align=center;" parent="1" vertex="1">
          <mxGeometry x="350" y="230" width="120" height="60" as="geometry" />
        </mxCell>
        <mxCell id="4QzucliX8BOiVu0A6L-6-9" style="edgeStyle=orthogonalEdgeStyle;rounded=0;orthogonalLoop=1;jettySize=auto;html=1;entryX=0.5;entryY=1;entryDx=0;entryDy=0;" parent="1" source="4QzucliX8BOiVu0A6L-6-2" target="4QzucliX8BOiVu0A6L-6-6" edge="1">
          <mxGeometry relative="1" as="geometry" />
        </mxCell>
        <mxCell id="4QzucliX8BOiVu0A6L-6-10" style="edgeStyle=orthogonalEdgeStyle;rounded=0;orthogonalLoop=1;jettySize=auto;html=1;entryX=0.5;entryY=1;entryDx=0;entryDy=0;" parent="1" source="4QzucliX8BOiVu0A6L-6-2" target="4QzucliX8BOiVu0A6L-6-3" edge="1">
          <mxGeometry relative="1" as="geometry" />
        </mxCell>
        <mxCell id="4QzucliX8BOiVu0A6L-6-11" style="edgeStyle=orthogonalEdgeStyle;rounded=0;orthogonalLoop=1;jettySize=auto;html=1;" parent="1" source="4QzucliX8BOiVu0A6L-6-2" target="4QzucliX8BOiVu0A6L-6-4" edge="1">
          <mxGeometry relative="1" as="geometry" />
        </mxCell>
        <mxCell id="4QzucliX8BOiVu0A6L-6-12" style="edgeStyle=orthogonalEdgeStyle;rounded=0;orthogonalLoop=1;jettySize=auto;html=1;entryX=0.5;entryY=1;entryDx=0;entryDy=0;" parent="1" source="4QzucliX8BOiVu0A6L-6-2" target="4QzucliX8BOiVu0A6L-6-5" edge="1">
          <mxGeometry relative="1" as="geometry" />
        </mxCell>
        <mxCell id="4QzucliX8BOiVu0A6L-6-53" style="edgeStyle=orthogonalEdgeStyle;rounded=0;orthogonalLoop=1;jettySize=auto;html=1;" parent="1" source="4QzucliX8BOiVu0A6L-6-2" target="4QzucliX8BOiVu0A6L-6-52" edge="1">
          <mxGeometry relative="1" as="geometry" />
        </mxCell>
        <mxCell id="4QzucliX8BOiVu0A6L-6-2" value="інформація про людини" style="rhombus;whiteSpace=wrap;html=1;" parent="1" vertex="1">
          <mxGeometry x="370" y="100" width="80" height="80" as="geometry" />
        </mxCell>
        <mxCell id="4QzucliX8BOiVu0A6L-6-3" value="імʼя" style="ellipse;whiteSpace=wrap;html=1;aspect=fixed;" parent="1" vertex="1">
          <mxGeometry x="290" y="50" width="50" height="50" as="geometry" />
        </mxCell>
        <mxCell id="4QzucliX8BOiVu0A6L-6-4" value="прізвище" style="ellipse;whiteSpace=wrap;html=1;aspect=fixed;" parent="1" vertex="1">
          <mxGeometry x="340" y="10" width="50" height="50" as="geometry" />
        </mxCell>
        <mxCell id="4QzucliX8BOiVu0A6L-6-5" value="По батькові" style="ellipse;whiteSpace=wrap;html=1;aspect=fixed;" parent="1" vertex="1">
          <mxGeometry x="435" y="10" width="50" height="50" as="geometry" />
        </mxCell>
        <mxCell id="4QzucliX8BOiVu0A6L-6-6" value="номер телефону" style="ellipse;whiteSpace=wrap;html=1;aspect=fixed;" parent="1" vertex="1">
          <mxGeometry x="485" y="50" width="50" height="50" as="geometry" />
        </mxCell>
        <mxCell id="4QzucliX8BOiVu0A6L-6-18" style="edgeStyle=orthogonalEdgeStyle;rounded=0;orthogonalLoop=1;jettySize=auto;html=1;" parent="1" source="4QzucliX8BOiVu0A6L-6-14" target="4QzucliX8BOiVu0A6L-6-16" edge="1">
          <mxGeometry relative="1" as="geometry" />
        </mxCell>
        <mxCell id="4QzucliX8BOiVu0A6L-6-21" style="edgeStyle=orthogonalEdgeStyle;rounded=0;orthogonalLoop=1;jettySize=auto;html=1;" parent="1" source="4QzucliX8BOiVu0A6L-6-14" target="4QzucliX8BOiVu0A6L-6-19" edge="1">
          <mxGeometry relative="1" as="geometry" />
        </mxCell>
        <mxCell id="4QzucliX8BOiVu0A6L-6-22" style="edgeStyle=orthogonalEdgeStyle;rounded=0;orthogonalLoop=1;jettySize=auto;html=1;" parent="1" source="4QzucliX8BOiVu0A6L-6-14" target="4QzucliX8BOiVu0A6L-6-20" edge="1">
          <mxGeometry relative="1" as="geometry" />
        </mxCell>
        <mxCell id="4QzucliX8BOiVu0A6L-6-14" value="робота" style="rhombus;whiteSpace=wrap;html=1;" parent="1" vertex="1">
          <mxGeometry x="510" y="220" width="80" height="80" as="geometry" />
        </mxCell>
        <mxCell id="4QzucliX8BOiVu0A6L-6-15" value="номер карти куди надходять гроші" style="ellipse;whiteSpace=wrap;html=1;aspect=fixed;" parent="1" vertex="1">
          <mxGeometry x="610" y="140" width="70" height="70" as="geometry" />
        </mxCell>
        <mxCell id="4QzucliX8BOiVu0A6L-6-25" style="edgeStyle=orthogonalEdgeStyle;rounded=0;orthogonalLoop=1;jettySize=auto;html=1;entryX=0;entryY=0.5;entryDx=0;entryDy=0;" parent="1" source="4QzucliX8BOiVu0A6L-6-16" target="4QzucliX8BOiVu0A6L-6-23" edge="1">
          <mxGeometry relative="1" as="geometry">
            <Array as="points">
              <mxPoint x="700" y="175" />
            </Array>
          </mxGeometry>
        </mxCell>
        <mxCell id="4QzucliX8BOiVu0A6L-6-26" style="edgeStyle=orthogonalEdgeStyle;rounded=0;orthogonalLoop=1;jettySize=auto;html=1;entryX=1;entryY=0.5;entryDx=0;entryDy=0;" parent="1" source="4QzucliX8BOiVu0A6L-6-16" target="4QzucliX8BOiVu0A6L-6-15" edge="1">
          <mxGeometry relative="1" as="geometry" />
        </mxCell>
        <mxCell id="4QzucliX8BOiVu0A6L-6-28" style="edgeStyle=orthogonalEdgeStyle;rounded=0;orthogonalLoop=1;jettySize=auto;html=1;entryX=1;entryY=0.5;entryDx=0;entryDy=0;" parent="1" source="4QzucliX8BOiVu0A6L-6-16" target="4QzucliX8BOiVu0A6L-6-24" edge="1">
          <mxGeometry relative="1" as="geometry" />
        </mxCell>
        <mxCell id="4QzucliX8BOiVu0A6L-6-29" style="edgeStyle=orthogonalEdgeStyle;rounded=0;orthogonalLoop=1;jettySize=auto;html=1;entryX=0;entryY=0.5;entryDx=0;entryDy=0;" parent="1" source="4QzucliX8BOiVu0A6L-6-16" target="4QzucliX8BOiVu0A6L-6-27" edge="1">
          <mxGeometry relative="1" as="geometry" />
        </mxCell>
        <mxCell id="4QzucliX8BOiVu0A6L-6-16" value="дохід &lt;br&gt;(заробітня плата)" style="rounded=0;whiteSpace=wrap;html=1;" parent="1" vertex="1">
          <mxGeometry x="640" y="230" width="120" height="60" as="geometry" />
        </mxCell>
        <mxCell id="4QzucliX8BOiVu0A6L-6-19" value="місце роботи" style="ellipse;whiteSpace=wrap;html=1;aspect=fixed;" parent="1" vertex="1">
          <mxGeometry x="530" y="160" width="40" height="40" as="geometry" />
        </mxCell>
        <mxCell id="4QzucliX8BOiVu0A6L-6-20" value="посада" style="ellipse;whiteSpace=wrap;html=1;aspect=fixed;" parent="1" vertex="1">
          <mxGeometry x="530" y="320" width="40" height="40" as="geometry" />
        </mxCell>
        <mxCell id="4QzucliX8BOiVu0A6L-6-23" value="сума" style="ellipse;whiteSpace=wrap;html=1;aspect=fixed;" parent="1" vertex="1">
          <mxGeometry x="720" y="150" width="50" height="50" as="geometry" />
        </mxCell>
        <mxCell id="4QzucliX8BOiVu0A6L-6-24" value="джерело доходу" style="ellipse;whiteSpace=wrap;html=1;aspect=fixed;" parent="1" vertex="1">
          <mxGeometry x="625" y="312.5" width="55" height="55" as="geometry" />
        </mxCell>
        <mxCell id="4QzucliX8BOiVu0A6L-6-27" value="дата надходження" style="ellipse;whiteSpace=wrap;html=1;aspect=fixed;" parent="1" vertex="1">
          <mxGeometry x="740" y="311" width="57.5" height="57.5" as="geometry" />
        </mxCell>
        <mxCell id="4QzucliX8BOiVu0A6L-6-35" style="edgeStyle=orthogonalEdgeStyle;rounded=0;orthogonalLoop=1;jettySize=auto;html=1;" parent="1" source="4QzucliX8BOiVu0A6L-6-30" target="4QzucliX8BOiVu0A6L-6-34" edge="1">
          <mxGeometry relative="1" as="geometry" />
        </mxCell>
        <mxCell id="4QzucliX8BOiVu0A6L-6-36" style="edgeStyle=orthogonalEdgeStyle;rounded=0;orthogonalLoop=1;jettySize=auto;html=1;" parent="1" source="4QzucliX8BOiVu0A6L-6-30" target="4QzucliX8BOiVu0A6L-6-32" edge="1">
          <mxGeometry relative="1" as="geometry" />
        </mxCell>
        <mxCell id="4QzucliX8BOiVu0A6L-6-37" style="edgeStyle=orthogonalEdgeStyle;rounded=0;orthogonalLoop=1;jettySize=auto;html=1;" parent="1" source="4QzucliX8BOiVu0A6L-6-30" target="4QzucliX8BOiVu0A6L-6-33" edge="1">
          <mxGeometry relative="1" as="geometry" />
        </mxCell>
        <mxCell id="4QzucliX8BOiVu0A6L-6-30" value="витрати" style="rhombus;whiteSpace=wrap;html=1;" parent="1" vertex="1">
          <mxGeometry x="220" y="220" width="80" height="80" as="geometry" />
        </mxCell>
        <mxCell id="4QzucliX8BOiVu0A6L-6-32" value="дата витрат" style="ellipse;whiteSpace=wrap;html=1;aspect=fixed;" parent="1" vertex="1">
          <mxGeometry x="232.5" y="140" width="55" height="55" as="geometry" />
        </mxCell>
        <mxCell id="4QzucliX8BOiVu0A6L-6-33" value="сума" style="ellipse;whiteSpace=wrap;html=1;aspect=fixed;" parent="1" vertex="1">
          <mxGeometry x="125" y="232.5" width="55" height="55" as="geometry" />
        </mxCell>
        <mxCell id="4QzucliX8BOiVu0A6L-6-34" value="опис (що саме)" style="ellipse;whiteSpace=wrap;html=1;aspect=fixed;" parent="1" vertex="1">
          <mxGeometry x="232.5" y="320" width="55" height="55" as="geometry" />
        </mxCell>
        <mxCell id="4QzucliX8BOiVu0A6L-6-43" style="edgeStyle=orthogonalEdgeStyle;rounded=0;orthogonalLoop=1;jettySize=auto;html=1;" parent="1" source="4QzucliX8BOiVu0A6L-6-38" target="4QzucliX8BOiVu0A6L-6-41" edge="1">
          <mxGeometry relative="1" as="geometry" />
        </mxCell>
        <mxCell id="4QzucliX8BOiVu0A6L-6-44" style="edgeStyle=orthogonalEdgeStyle;rounded=0;orthogonalLoop=1;jettySize=auto;html=1;" parent="1" source="4QzucliX8BOiVu0A6L-6-38" target="4QzucliX8BOiVu0A6L-6-40" edge="1">
          <mxGeometry relative="1" as="geometry" />
        </mxCell>
        <mxCell id="4QzucliX8BOiVu0A6L-6-38" value="Місце транзакції" style="rhombus;whiteSpace=wrap;html=1;" parent="1" vertex="1">
          <mxGeometry x="370" y="360" width="80" height="80" as="geometry" />
        </mxCell>
        <mxCell id="4QzucliX8BOiVu0A6L-6-40" value="адреса" style="ellipse;whiteSpace=wrap;html=1;aspect=fixed;" parent="1" vertex="1">
          <mxGeometry x="470" y="377.5" width="45" height="45" as="geometry" />
        </mxCell>
        <mxCell id="4QzucliX8BOiVu0A6L-6-41" value="час" style="ellipse;whiteSpace=wrap;html=1;aspect=fixed;" parent="1" vertex="1">
          <mxGeometry x="305" y="377.5" width="45" height="45" as="geometry" />
        </mxCell>
        <mxCell id="4QzucliX8BOiVu0A6L-6-49" style="edgeStyle=orthogonalEdgeStyle;rounded=0;orthogonalLoop=1;jettySize=auto;html=1;entryX=1;entryY=0.5;entryDx=0;entryDy=0;" parent="1" source="4QzucliX8BOiVu0A6L-6-46" target="4QzucliX8BOiVu0A6L-6-47" edge="1">
          <mxGeometry relative="1" as="geometry" />
        </mxCell>
        <mxCell id="4QzucliX8BOiVu0A6L-6-50" style="edgeStyle=orthogonalEdgeStyle;rounded=0;orthogonalLoop=1;jettySize=auto;html=1;entryX=0;entryY=0.5;entryDx=0;entryDy=0;" parent="1" source="4QzucliX8BOiVu0A6L-6-46" target="4QzucliX8BOiVu0A6L-6-48" edge="1">
          <mxGeometry relative="1" as="geometry" />
        </mxCell>
        <mxCell id="4QzucliX8BOiVu0A6L-6-46" value="метод оплати" style="rounded=0;whiteSpace=wrap;html=1;" parent="1" vertex="1">
          <mxGeometry x="60" y="135" width="120" height="60" as="geometry" />
        </mxCell>
        <mxCell id="4QzucliX8BOiVu0A6L-6-47" value="готівка" style="ellipse;whiteSpace=wrap;html=1;aspect=fixed;" parent="1" vertex="1">
          <mxGeometry x="10" y="70" width="50" height="50" as="geometry" />
        </mxCell>
        <mxCell id="4QzucliX8BOiVu0A6L-6-48" value="карта" style="ellipse;whiteSpace=wrap;html=1;aspect=fixed;" parent="1" vertex="1">
          <mxGeometry x="180" y="70" width="50" height="50" as="geometry" />
        </mxCell>
        <mxCell id="4QzucliX8BOiVu0A6L-6-51" style="edgeStyle=orthogonalEdgeStyle;rounded=0;orthogonalLoop=1;jettySize=auto;html=1;entryX=1.008;entryY=0.367;entryDx=0;entryDy=0;entryPerimeter=0;" parent="1" source="4QzucliX8BOiVu0A6L-6-30" target="4QzucliX8BOiVu0A6L-6-46" edge="1">
          <mxGeometry relative="1" as="geometry">
            <Array as="points">
              <mxPoint x="210" y="260" />
              <mxPoint x="210" y="157" />
            </Array>
          </mxGeometry>
        </mxCell>
        <mxCell id="4QzucliX8BOiVu0A6L-6-52" value="номер карти" style="ellipse;whiteSpace=wrap;html=1;aspect=fixed;" parent="1" vertex="1">
          <mxGeometry x="385" y="-50" width="50" height="50" as="geometry" />
        </mxCell>
      </root>
    </mxGraphModel>
  </diagram>
</mxfile>
